<svg width="46" height="52" viewBox="0 0 46 52" fill="none" xmlns="http://www.w3.org/2000/svg">
<path d="M9.55 22.1178C13.15 30.1419 18.95 36.6916 26.025 40.8028L31.525 34.565C32.2 33.7995 33.2 33.5443 34.075 33.8845C36.875 34.9336 39.9 35.5007 43 35.5007C44.375 35.5007 45.5 36.7766 45.5 38.3361V48.2315C45.5 49.791 44.375 51.0669 43 51.0669C19.525 51.0669 0.5 29.4897 0.5 2.86564C0.5 1.30619 1.625 0.0302734 3 0.0302734H11.75C13.125 0.0302734 14.25 1.30619 14.25 2.86564C14.25 6.40985 14.75 9.81229 15.675 12.9879C15.95 13.9803 15.75 15.0861 15.05 15.88L9.55 22.1178Z" fill="black"/>
</svg>
