<svg width="12" height="20" viewBox="0 0 12 20" fill="none" xmlns="http://www.w3.org/2000/svg">
<path d="M2.87495 1.19844L11.3 9.59844C11.4 9.69844 11.4706 9.80677 11.512 9.92344C11.554 10.0401 11.575 10.1651 11.575 10.2984C11.575 10.4318 11.554 10.5568 11.512 10.6734C11.4706 10.7901 11.4 10.8984 11.3 10.9984L2.87495 19.4234C2.64162 19.6568 2.34995 19.7734 1.99995 19.7734C1.64995 19.7734 1.34995 19.6484 1.09995 19.3984C0.849952 19.1484 0.724952 18.8568 0.724952 18.5234C0.724952 18.1901 0.849952 17.8984 1.09995 17.6484L8.44995 10.2984L1.09995 2.94844C0.866618 2.7151 0.749951 2.42777 0.749951 2.08644C0.749951 1.74444 0.874951 1.44844 1.12495 1.19844C1.37495 0.948437 1.66662 0.823437 1.99995 0.823437C2.33328 0.823437 2.62495 0.948437 2.87495 1.19844Z" fill="white"/>
</svg>
