<svg width="50" height="58" viewBox="0 0 50 58" fill="none" xmlns="http://www.w3.org/2000/svg">
<path d="M25 0.853516C18.2156 0.853516 17.3625 0.888958 14.6969 1.02364C12.0312 1.16541 10.2156 1.64033 8.625 2.34208C6.95654 3.05383 5.44529 4.17028 4.19688 5.61339C2.92524 7.02999 1.94096 8.74377 1.3125 10.6355C0.69375 12.436 0.271875 14.4987 0.15 17.5113C0.03125 20.5416 0 21.5056 0 29.2107C0 36.9087 0.03125 37.8728 0.15 40.896C0.275 43.9156 0.69375 45.9748 1.3125 47.7788C1.95312 49.6431 2.80625 51.2238 4.19688 52.8009C5.58438 54.3781 6.97813 55.3492 8.62187 56.0723C10.2156 56.774 12.0281 57.2525 14.6906 57.3907C17.3594 57.5254 18.2094 57.5608 25 57.5608C31.7906 57.5608 32.6375 57.5254 35.3063 57.3907C37.9656 57.2489 39.7875 56.774 41.3781 56.0723C43.0455 55.3602 44.5557 54.2437 45.8031 52.8009C47.1937 51.2238 48.0469 49.6431 48.6875 47.7788C49.3031 45.9748 49.725 43.9156 49.85 40.896C49.9688 37.8728 50 36.9087 50 29.2072C50 21.5056 49.9688 20.5416 49.85 17.5148C49.725 14.4987 49.3031 12.436 48.6875 10.6355C48.0591 8.74372 47.0748 7.02992 45.8031 5.61339C44.5551 4.16974 43.0437 3.05321 41.375 2.34208C39.7812 1.64033 37.9625 1.16186 35.3031 1.02364C32.6344 0.888958 31.7875 0.853516 24.9937 0.853516H25.0031H25ZM22.7594 5.96426H25.0031C31.6781 5.96426 32.4688 5.98907 35.1031 6.1273C37.5406 6.25134 38.8656 6.71563 39.7469 7.10195C40.9125 7.61586 41.7469 8.23255 42.6219 9.22493C43.4969 10.2173 44.0375 11.1601 44.4906 12.4856C44.8344 13.4815 45.2406 14.9843 45.35 17.7487C45.4719 20.7365 45.4969 21.6332 45.4969 29.2001C45.4969 36.767 45.4719 37.6672 45.35 40.655C45.2406 43.4194 44.8313 44.9186 44.4906 45.9181C44.0898 47.1492 43.4501 48.2624 42.6187 49.1752C41.7437 50.1676 40.9125 50.7808 39.7438 51.2947C38.8688 51.6845 37.5438 52.1453 35.1031 52.2729C32.4688 52.4075 31.6781 52.4394 25.0031 52.4394C18.3281 52.4394 17.5344 52.4075 14.9 52.2729C12.4625 52.1453 11.1406 51.6845 10.2594 51.2947C9.17343 50.8407 8.19102 50.1165 7.38437 49.1752C6.55235 48.2609 5.91163 47.1467 5.50938 45.9146C5.16875 44.9186 4.75938 43.4159 4.65 40.6514C4.53125 37.6636 4.50625 36.767 4.50625 29.193C4.50625 21.6226 4.53125 20.7294 4.65 17.7417C4.7625 14.9772 5.16875 13.4744 5.5125 12.475C5.96563 11.153 6.50937 10.2067 7.38437 9.2143C8.25937 8.22192 9.09062 7.60877 10.2594 7.09486C11.1406 6.705 12.4625 6.24425 14.9 6.11666C17.2063 5.99616 18.1 5.96072 22.7594 5.95717V5.96426ZM38.3469 10.671C37.9529 10.671 37.5628 10.759 37.1988 10.93C36.8348 11.101 36.5041 11.3516 36.2256 11.6675C35.947 11.9835 35.726 12.3585 35.5752 12.7713C35.4245 13.1842 35.3469 13.6266 35.3469 14.0734C35.3469 14.5202 35.4245 14.9627 35.5752 15.3755C35.726 15.7883 35.947 16.1633 36.2256 16.4793C36.5041 16.7952 36.8348 17.0459 37.1988 17.2168C37.5628 17.3878 37.9529 17.4758 38.3469 17.4758C39.1425 17.4758 39.9056 17.1174 40.4682 16.4793C41.0308 15.8412 41.3469 14.9758 41.3469 14.0734C41.3469 13.171 41.0308 12.3056 40.4682 11.6675C39.9056 11.0294 39.1425 10.671 38.3469 10.671ZM25.0031 14.6476C23.3002 14.6174 21.609 14.9718 20.0281 15.6901C18.4471 16.4083 17.0079 17.4761 15.7942 18.8312C14.5806 20.1864 13.6168 21.8018 12.9589 23.5834C12.301 25.3651 11.9622 27.2774 11.9622 29.2089C11.9622 31.1405 12.301 33.0528 12.9589 34.8344C13.6168 36.6161 14.5806 38.2315 15.7942 39.5866C17.0079 40.9418 18.4471 42.0096 20.0281 42.7278C21.609 43.4461 23.3002 43.8004 25.0031 43.7703C28.3736 43.7107 31.5882 42.1503 33.9531 39.426C36.3179 36.7017 37.6434 33.032 37.6434 29.2089C37.6434 25.3859 36.3179 21.7162 33.9531 18.9919C31.5882 16.2676 28.3736 14.7072 25.0031 14.6476ZM25.0031 19.7548C27.2135 19.7548 29.3334 20.7506 30.8964 22.5233C32.4594 24.296 33.3375 26.7002 33.3375 29.2072C33.3375 31.7141 32.4594 34.1184 30.8964 35.891C29.3334 37.6637 27.2135 38.6596 25.0031 38.6596C22.7927 38.6596 20.6728 37.6637 19.1098 35.891C17.5468 34.1184 16.6688 31.7141 16.6688 29.2072C16.6688 26.7002 17.5468 24.296 19.1098 22.5233C20.6728 20.7506 22.7927 19.7548 25.0031 19.7548Z" fill="url(#paint0_linear_705_102)"/>
<defs>
<linearGradient id="paint0_linear_705_102" x1="25" y1="0.853516" x2="25" y2="57.5608" gradientUnits="userSpaceOnUse">
<stop stop-color="#673F9B"/>
<stop offset="0.421875" stop-color="#DC2265" stop-opacity="0.546875"/>
<stop offset="0.96875" stop-color="#E0E40E" stop-opacity="0"/>
<stop offset="0.9999" stop-color="#FADE4C" stop-opacity="0.92"/>
</linearGradient>
</defs>
</svg>
