<svg width="50" height="58" viewBox="0 0 50 58" fill="none" xmlns="http://www.w3.org/2000/svg">
<path d="M0 4.52455C0 2.28107 1.64375 0.462891 3.67188 0.462891H46.3281C48.3563 0.462891 50 2.28107 50 4.52455V53.1086C50 55.352 48.3563 57.1702 46.3281 57.1702H3.67188C1.64375 57.1702 0 55.352 0 53.1086V4.52455ZM15.4469 47.934V22.3271H7.94375V47.934H15.4469ZM11.6969 18.829C14.3125 18.829 15.9406 16.8655 15.9406 14.4058C15.8937 11.893 14.3156 9.98263 11.7469 9.98263C9.17813 9.98263 7.5 11.8965 7.5 14.4058C7.5 16.8655 9.12813 18.829 11.6469 18.829H11.6969ZM27.0344 47.934V33.6331C27.0344 32.8676 27.0844 32.102 27.2844 31.5562C27.825 30.0287 29.0594 28.4444 31.1344 28.4444C33.85 28.4444 34.9344 30.7907 34.9344 34.2357V47.934H42.4375V33.2468C42.4375 25.3787 38.7375 21.7211 33.8 21.7211C29.8188 21.7211 28.0344 24.202 27.0344 25.9493V26.0379H26.9844C27.001 26.0083 27.0176 25.9788 27.0344 25.9493V22.3271H19.5344C19.6281 24.7301 19.5344 47.934 19.5344 47.934H27.0344Z" fill="#193BC5"/>
</svg>
