<svg width="315" height="52" viewBox="0 0 315 52" fill="none" xmlns="http://www.w3.org/2000/svg">
<path d="M67.5708 38.0715C71.3689 38.0715 74.726 36.9864 77.4389 35.0534L74.7938 31.0519C72.8609 32.6458 70.3854 33.5953 67.5708 33.5953C60.5513 33.5953 56.1429 28 56.1429 21.523C56.1429 15.046 60.5513 9.48459 67.5708 9.48459C70.3854 9.48459 72.8609 10.4341 74.7938 12.0279L77.4389 8.02642C74.726 6.0935 71.3689 5.00835 67.5708 5.00835C57.5672 5.00835 50.8867 12.3331 50.8867 21.523C50.8867 30.7807 57.5672 38.0715 67.5708 38.0715ZM82.1864 37.4272H87.0017V3.82146H82.1864V37.4272ZM114.503 25.7279C114.503 19.0475 109.993 14.4017 103.448 14.4017C96.7002 14.4017 91.8849 19.5901 91.8849 26.2027C91.8849 32.8492 96.6324 37.9698 103.991 37.9698C107.925 37.9698 111.18 36.6473 113.215 34.3752L109.892 31.6963C108.467 33.324 106.534 34.1717 103.957 34.1717C99.7522 34.1717 97.2767 31.2554 96.9376 27.2539H114.503V25.7279ZM103.448 18.2675C106.975 18.2675 109.247 20.37 109.756 23.9306H97.1411C97.8193 20.5396 100.159 18.2675 103.448 18.2675ZM125.965 38.0715C129.119 38.0715 132.103 36.7151 133.629 34.5787L134.375 37.4272H138.41V23.9985C138.41 17.6232 135.121 14.4017 128.475 14.4017C125.185 14.4017 122.405 15.2494 120.268 16.9111L122.405 20.2344C123.897 18.9457 125.83 18.3014 128 18.3014C131.561 18.3014 133.629 19.997 133.629 23.0151V24.8802L133.053 24.6767C123.286 21.0143 117.962 26.0331 117.962 30.8485C117.962 35.0534 121.523 38.0715 125.965 38.0715ZM127.389 34.3752C124.575 34.3752 123.015 32.5779 123.015 30.5094C123.015 27.8982 125.999 25.2871 132.985 27.7626L133.629 27.9321V28.5764C133.629 32.2388 130.679 34.3752 127.389 34.3752ZM154.586 14.4017C151.941 14.4017 150.144 15.6903 148.855 17.9623L148.279 14.9782H144.107V37.4272H148.923V25.7279C148.923 22.0655 150.856 18.8101 154.349 18.8101C155.129 18.8101 155.875 18.9457 156.519 19.2509L157.977 15.1477C157.367 14.7747 156.078 14.4017 154.586 14.4017ZM176.764 38.0715C180.562 38.0715 183.919 36.9864 186.632 35.0534L183.987 31.0519C182.054 32.6458 179.578 33.5953 176.764 33.5953C169.744 33.5953 165.336 28 165.336 21.523C165.336 15.046 169.744 9.48459 176.764 9.48459C179.578 9.48459 182.054 10.4341 183.987 12.0279L186.632 8.02642C183.919 6.0935 180.562 5.00835 176.764 5.00835C166.76 5.00835 160.079 12.3331 160.079 21.523C160.079 30.7807 166.76 38.0715 176.764 38.0715ZM191.379 37.4272H196.194V3.82146H191.379V37.4272ZM205.249 10.6715C206.978 10.6715 208.368 9.31504 208.368 7.61949C208.368 5.92394 206.978 4.56751 205.249 4.56751C203.519 4.56751 202.129 5.92394 202.129 7.61949C202.129 9.31504 203.519 10.6715 205.249 10.6715ZM202.909 37.4272H207.622V14.9782H202.909V37.4272ZM238.922 14.4017C234.954 14.4017 232.988 15.8938 231.563 17.9623C230.105 15.419 227.63 14.4017 225.053 14.4017C222.509 14.4017 220.169 15.6225 218.881 17.8606L218.338 14.9782H214.133V37.4272H218.949V24.2358C219.22 20.4717 221.017 18.5049 223.9 18.5049C226.952 18.5049 228.172 21.0143 228.172 24.6767V37.4272H232.988V25.3888C232.988 20.9804 234.751 18.5049 237.871 18.5049C240.991 18.5049 242.245 21.0143 242.245 24.6428V37.4272H247.027V24.3037C247.027 16.9789 243.161 14.4017 238.922 14.4017ZM259.506 38.0715C262.66 38.0715 265.61 36.7151 267.17 34.5787L267.882 37.4272H271.951V23.9985C271.951 17.6232 268.628 14.4017 262.015 14.4017C258.692 14.4017 255.911 15.2494 253.809 16.9111L255.911 20.2344C257.403 18.9457 259.336 18.3014 261.507 18.3014C265.067 18.3014 267.17 19.997 267.17 23.0151V24.8802L266.559 24.6767C256.827 21.0143 251.469 26.0331 251.469 30.8485C251.469 35.0534 255.03 38.0715 259.506 38.0715ZM260.93 34.3752C258.116 34.3752 256.522 32.5779 256.522 30.5094C256.522 27.8982 259.54 25.2871 266.525 27.7626L267.17 27.9321V28.5764C267.17 32.2388 264.186 34.3752 260.93 34.3752ZM288.059 33.2901C287.788 33.4935 286.974 33.7309 286.058 33.7309C284.498 33.7309 283.583 32.8492 283.583 30.8146V18.844H288.33V14.9782H283.583V8.56899H278.767V14.9782H275.817V18.844H278.767V31.2215C278.767 36.6133 282.124 37.8341 284.905 37.8341C286.702 37.8341 288.127 37.495 288.703 37.1898L288.059 33.2901ZM314.068 25.7279C314.068 19.0475 309.592 14.4017 303.047 14.4017C296.265 14.4017 291.484 19.5901 291.484 26.2027C291.484 32.8492 296.231 37.9698 303.59 37.9698C307.524 37.9698 310.779 36.6473 312.814 34.3752L309.49 31.6963C308.066 33.324 306.133 34.1717 303.556 34.1717C299.351 34.1717 296.876 31.2554 296.536 27.2539H314.068V25.7279ZM303.047 18.2675C306.574 18.2675 308.846 20.37 309.355 23.9306H296.74C297.418 20.5396 299.758 18.2675 303.047 18.2675Z" fill="black"/>
<path d="M47.1371 14.2507C43.0986 18.281 39.3135 18.2202 36.5033 18.5457C33.6811 18.8726 24.258 18.8732 19.8055 25.8995C15.3536 32.9258 18.6795 36.8708 18.6795 36.8708C18.8714 37.1443 18.9605 37.2396 19.0603 37.3268C19.187 36.1061 19.5709 34.6665 20.3863 32.9998C23.5222 26.5838 31.554 25.7445 33.9295 25.2132C36.1645 24.7126 39.173 24.4291 42.083 21.1829C39.385 24.9585 36.2912 25.4823 34.0361 26.1723C31.7158 26.8837 23.79 28.3315 21.1824 34.9783C20.7025 36.2002 20.4315 37.2905 20.3023 38.2602C20.0833 39.4468 19.9425 40.6465 19.8807 41.8515C18.6408 38.5042 16.761 35.4303 14.3462 32.8016C14.6579 31.5645 14.8317 29.9574 14.6899 27.8591C14.2082 20.7362 8.72944 16.8878 7.18631 15.4883C5.68709 14.129 3.53925 12.6668 2.37688 8.24059C3.8071 12.2302 5.94427 13.439 7.46921 14.6114C9.09075 15.8565 14.7771 19.1605 15.6942 26.2307C15.9326 28.0668 15.905 29.5534 15.7363 30.7522C15.8278 30.7001 15.9138 30.6374 16.112 30.4379C16.112 30.4379 19.3858 27.7318 17.6388 19.6717C15.8918 11.6123 9.00858 8.67028 7.01694 7.47906C5.03345 6.29285 2.25707 5.16937 0.169456 0.0832907L0.139974 0.000488281C-0.0394307 4.63994 -1.48533 23.8639 11.0473 31.1581C15.8975 35.5115 18.8495 40.8139 20.0871 47.2832C20.0928 47.3139 20.1141 47.3328 20.1279 47.3579C20.3104 48.6626 20.5689 49.9699 20.9158 51.2809C20.9841 51.5387 22.1961 51.2157 22.1277 50.956C21.082 47.0103 20.7558 43.1193 21.2972 39.2087C21.4345 39.2501 21.5663 39.299 21.6873 39.3586L21.6892 39.3542C23.3202 39.8084 24.4179 39.688 24.4179 39.688C42.46 38.067 46.1052 18.7471 47.1967 14.1823L47.1371 14.2507Z" fill="url(#paint0_linear_571_438)"/>
<path d="M53.5649 46.9797C53.5553 46.9701 53.5425 46.9605 53.5297 46.9605C53.5201 46.9605 53.5137 46.9605 53.5072 46.9669C53.5008 46.9701 53.4912 46.9797 53.4848 46.9829C53.4208 47.0406 53.3535 47.0918 53.2894 47.1367C53.2286 47.1815 53.1613 47.2135 53.0844 47.2424C53.0075 47.2744 52.9275 47.2968 52.8378 47.3096C52.7481 47.3257 52.6488 47.3321 52.5367 47.3321C52.3573 47.3321 52.1843 47.3032 52.0306 47.236C51.8736 47.1719 51.7423 47.079 51.6302 46.9573C51.5181 46.8356 51.4252 46.6818 51.3611 46.5088C51.3003 46.3327 51.2682 46.1309 51.2682 45.9066C51.2682 45.6888 51.3003 45.4902 51.3611 45.3141C51.4284 45.1411 51.5181 44.9937 51.6366 44.8656C51.7519 44.7471 51.8928 44.651 52.053 44.5837C52.2132 44.5165 52.3893 44.4844 52.5815 44.4844C52.8698 44.4844 53.1325 44.5293 53.3663 44.635C53.3791 44.9201 53.3951 45.0866 53.3951 45.1219C53.3983 45.1955 53.424 45.2308 53.488 45.2308H53.5969V44.5133C53.219 44.3595 52.8794 44.289 52.5815 44.289C52.3541 44.289 52.1459 44.3243 51.9537 44.4043C51.7647 44.4844 51.5949 44.5933 51.4604 44.7375C51.3227 44.8816 51.2202 45.0514 51.1433 45.2468C51.0664 45.4454 51.0312 45.6664 51.0312 45.9066C51.0312 46.1533 51.0696 46.3743 51.1433 46.5761C51.2138 46.7779 51.3163 46.9445 51.4476 47.0854C51.5789 47.2296 51.7359 47.3385 51.9185 47.4154C52.101 47.489 52.2996 47.5307 52.5207 47.5307C52.6488 47.5307 52.7705 47.5211 52.8826 47.4986C52.9915 47.4762 53.094 47.4442 53.1869 47.4057C53.2766 47.3641 53.3631 47.3161 53.44 47.2616C53.5136 47.2039 53.5873 47.1463 53.6546 47.0726L53.5649 46.9797ZM58.7797 47.3257H58.69C58.6644 47.3257 58.6355 47.3193 58.6099 47.3193L57.6586 46.1213C57.6329 46.086 57.5945 46.054 57.5593 46.0316C57.7002 46.0188 57.8251 45.9867 57.9372 45.9387C58.0494 45.8906 58.139 45.8266 58.2191 45.7497C58.296 45.6728 58.3569 45.5831 58.3985 45.487C58.4402 45.3877 58.4626 45.2756 58.4626 45.1539C58.4626 44.8816 58.3729 44.6798 58.1935 44.5357C58.0141 44.3947 57.7387 44.3243 57.3703 44.3243H56.2235V44.4108C56.2235 44.4588 56.2492 44.4844 56.31 44.4908H56.3549C56.3773 44.4908 56.4061 44.494 56.451 44.494C56.4958 44.494 56.5471 44.5004 56.6015 44.5004V47.3161C56.5471 47.3161 56.4958 47.3193 56.451 47.3193C56.4061 47.3193 56.3773 47.3257 56.3549 47.3257H56.31C56.2492 47.3289 56.2203 47.3545 56.2203 47.4057V47.4954H57.2069V47.4057C57.2069 47.3545 57.1749 47.3289 57.1172 47.3257H57.0724C57.05 47.3257 57.0179 47.3193 56.9731 47.3193C56.9282 47.3193 56.8834 47.3161 56.8289 47.3161V46.0604H57.2069C57.2678 46.0604 57.3126 46.0636 57.3415 46.0764C57.3671 46.0924 57.3927 46.1181 57.4215 46.1501L58.4401 47.4378C58.4562 47.4602 58.469 47.473 58.4882 47.4826C58.5074 47.489 58.5298 47.4954 58.5523 47.4954H58.8662V47.4057C58.8662 47.3545 58.8373 47.3289 58.7797 47.3257ZM57.3415 45.8906H56.8289V44.5036H57.3703C57.6554 44.5036 57.87 44.5613 58.0173 44.6702C58.1647 44.7759 58.2383 44.9489 58.2383 45.1731C58.2383 45.2852 58.2191 45.3781 58.1775 45.4678C58.139 45.5575 58.075 45.628 57.9981 45.692C57.9244 45.7561 57.8283 45.8073 57.7162 45.8394C57.6041 45.8714 57.4792 45.8906 57.3415 45.8906ZM61.4928 44.3243V44.4108C61.4928 44.4588 61.5248 44.4844 61.5825 44.4908H61.6273C61.6497 44.4908 61.6818 44.494 61.7266 44.494C61.7715 44.494 61.8195 44.5004 61.874 44.5004V47.3161C61.8195 47.3161 61.7715 47.3193 61.7266 47.3193C61.6818 47.3193 61.6497 47.3257 61.6273 47.3257H61.5825C61.5248 47.3289 61.496 47.3545 61.496 47.4057V47.4954H63.7767V46.8356H63.6645C63.6005 46.8356 63.5749 46.8772 63.5684 46.9477C63.5684 46.9573 63.5652 46.9733 63.5652 47.0053C63.5652 47.0374 63.5652 47.0822 63.5588 47.1495C63.5556 47.2168 63.5524 47.2616 63.5524 47.3032H62.1014V45.9803H63.3666V45.7945H62.1014V44.5133H63.5524C63.5588 44.7087 63.5684 44.8304 63.5684 44.872C63.5749 44.9425 63.6005 44.9777 63.6645 44.9777H63.7767V44.3243H61.4928ZM69.5007 47.3032L69.3534 47.2872L68.1426 44.3211H67.9152L66.698 47.2872L66.557 47.3032C66.4962 47.3064 66.4705 47.3385 66.4705 47.3929V47.4954H67.2425V47.3929C67.2425 47.3321 67.2073 47.3064 67.14 47.3032C67.1336 47.3032 67.124 47.2968 67.1112 47.2968C67.0984 47.2968 67.0791 47.2936 67.0503 47.2936C67.0183 47.2936 66.9766 47.2936 66.9318 47.2872L67.2457 46.5121L67.2681 46.4544H68.7832L68.8057 46.5121L69.1196 47.2872C69.0747 47.2936 69.0395 47.2936 69.0075 47.2936C68.9786 47.2936 68.9562 47.2968 68.9402 47.2968C68.9274 47.2968 68.9178 47.3032 68.9146 47.3032C68.8473 47.3064 68.8121 47.3321 68.8121 47.3929V47.4954H69.5872V47.3929C69.5872 47.3385 69.5616 47.3064 69.5007 47.3032ZM67.9632 44.7407C67.9728 44.7151 67.9856 44.683 67.9952 44.651C68.0049 44.619 68.0177 44.5901 68.0273 44.5517C68.0369 44.5901 68.0497 44.619 68.0593 44.651C68.0657 44.683 68.0817 44.7086 68.0881 44.7375L68.716 46.2846H67.3418L67.9632 44.7407ZM71.7846 44.3243V44.9777H71.8967C71.9608 44.9777 71.9864 44.9425 71.9896 44.872C71.9896 44.84 71.9992 44.7247 72.0088 44.5165H72.9378V47.3161C72.8833 47.3161 72.8385 47.3193 72.7936 47.3193C72.7488 47.3193 72.7135 47.3257 72.6911 47.3257H72.6495C72.5918 47.3289 72.5598 47.3545 72.5598 47.4057V47.4954H73.5464V47.4057C73.5464 47.3545 73.5143 47.3289 73.4567 47.3257H73.4118C73.3894 47.3257 73.3574 47.3193 73.3125 47.3193C73.2677 47.3193 73.2196 47.3161 73.1652 47.3161V44.5165H74.0909C74.1037 44.7471 74.1069 44.8624 74.1069 44.872C74.1133 44.9425 74.1422 44.9777 74.2062 44.9777H74.3151V44.3243H71.7846ZM77.813 44.4908C77.8707 44.4844 77.8963 44.4588 77.8963 44.4108V44.3211H76.9097V44.4108C76.9097 44.4588 76.9417 44.4844 76.9994 44.4908H77.0443C77.0667 44.4908 77.0987 44.494 77.1435 44.494C77.1884 44.494 77.2364 44.5004 77.2909 44.5004V47.3161C77.2364 47.3161 77.1884 47.3193 77.1435 47.3193C77.0987 47.3193 77.0667 47.3257 77.0443 47.3257H76.9994C76.9417 47.3289 76.9097 47.3545 76.9097 47.4057V47.4954H77.8963V47.4057C77.8963 47.3545 77.8707 47.3289 77.813 47.3257H77.7682C77.7457 47.3257 77.7137 47.3193 77.6689 47.3193C77.624 47.3193 77.5728 47.3161 77.5215 47.3161V44.5004C77.5728 44.5004 77.624 44.494 77.6689 44.494C77.7137 44.494 77.7457 44.4908 77.7682 44.4908H77.813ZM82.8068 44.3243V44.4108C82.8068 44.4588 82.8388 44.4844 82.8965 44.4908H82.9413C82.9637 44.4908 82.999 44.494 83.0438 44.494C83.0886 44.494 83.1431 44.5004 83.1976 44.5004V46.9829C83.1976 47.0246 83.1976 47.0694 83.2008 47.1143L81.1475 44.3659C81.1347 44.3467 81.1251 44.3339 81.1123 44.3275C81.0995 44.3243 81.0867 44.3211 81.0642 44.3211H80.5709V44.4108C80.5709 44.4588 80.5998 44.4844 80.6606 44.4908H80.7055C80.7279 44.4908 80.7567 44.494 80.8016 44.494C80.8464 44.494 80.8977 44.5004 80.9521 44.5004V47.3161C80.8977 47.3161 80.8464 47.3193 80.8016 47.3193C80.7567 47.3193 80.7279 47.3257 80.7055 47.3257H80.6606C80.5998 47.3289 80.5709 47.3545 80.5709 47.4057V47.4954H81.5383V47.4057C81.5383 47.3545 81.5063 47.3289 81.4486 47.3257H81.4038C81.3814 47.3257 81.3397 47.3193 81.2949 47.3193C81.25 47.3193 81.202 47.3161 81.1475 47.3161V44.8272C81.1475 44.7855 81.1475 44.7407 81.1443 44.6958L83.2072 47.4506C83.2296 47.4826 83.252 47.4954 83.2873 47.4954H83.3994V44.5004C83.4538 44.5004 83.4987 44.494 83.5435 44.494C83.5883 44.494 83.6236 44.4908 83.646 44.4908H83.6877C83.7453 44.4844 83.7773 44.4588 83.7773 44.4108V44.3243H82.8068ZM88.1561 46.054V46.1821C88.1561 46.1949 88.1657 46.2077 88.1753 46.2174C88.1849 46.227 88.1977 46.2302 88.2169 46.2302H88.8256V47.0854C88.7551 47.1271 88.6814 47.1623 88.6141 47.1943C88.5469 47.2264 88.47 47.2584 88.3963 47.2808C88.3195 47.3032 88.233 47.3193 88.1433 47.3289C88.0536 47.3385 87.9543 47.3417 87.8486 47.3417C87.65 47.3417 87.4706 47.3096 87.3104 47.2424C87.1471 47.1751 87.0093 47.0822 86.894 46.9605C86.7755 46.8388 86.6858 46.6882 86.625 46.5088C86.5609 46.3295 86.5257 46.1309 86.5257 45.9066C86.5257 45.6888 86.5609 45.4902 86.625 45.3141C86.6858 45.1411 86.7755 44.9873 86.894 44.8656C87.0093 44.7471 87.1535 44.651 87.3201 44.5837C87.4834 44.5165 87.6692 44.4844 87.8742 44.4844C88.2522 44.4844 88.5533 44.5357 88.7711 44.6382C88.7839 44.9297 88.7935 45.0898 88.7935 45.1219C88.7999 45.1955 88.8288 45.2308 88.8928 45.2308H89.0017V44.5133C88.8608 44.4492 88.6814 44.3947 88.4572 44.3499C88.233 44.305 88.044 44.289 87.8838 44.289C87.6404 44.289 87.4226 44.3243 87.224 44.4011C87.0286 44.478 86.862 44.5901 86.7211 44.7279C86.5833 44.8656 86.4808 45.0386 86.4039 45.2404C86.3271 45.4358 86.2918 45.66 86.2918 45.9066C86.2918 46.1533 86.3271 46.3743 86.4039 46.5761C86.4808 46.7779 86.5833 46.9445 86.7179 47.0854C86.8524 47.2296 87.019 47.3385 87.208 47.4154C87.3937 47.489 87.6019 47.5307 87.8294 47.5307C87.9639 47.5307 88.0856 47.5211 88.1977 47.5082C88.3099 47.489 88.4123 47.4666 88.5117 47.441C88.6109 47.4089 88.7006 47.3737 88.7839 47.3289C88.8704 47.284 88.9505 47.236 89.0306 47.1815V46.054H88.1561ZM98.0219 47.3032L97.8745 47.2872L96.6637 44.3211H96.4363L95.2191 47.2872L95.0782 47.3032C95.0173 47.3064 94.9917 47.3385 94.9917 47.3929V47.4954H95.7636V47.3929C95.7636 47.3321 95.7284 47.3064 95.6612 47.3032C95.6547 47.3032 95.6451 47.2968 95.6323 47.2968C95.6195 47.2968 95.6003 47.2936 95.5715 47.2936C95.5394 47.2936 95.4978 47.2936 95.4529 47.2872L95.7669 46.5121L95.7893 46.4544H97.3044L97.3268 46.5121L97.6407 47.2872C97.5959 47.2936 97.5606 47.2936 97.5286 47.2936C97.4998 47.2936 97.4774 47.2968 97.4613 47.2968C97.4485 47.2968 97.4389 47.3032 97.4357 47.3032C97.3684 47.3064 97.3332 47.3321 97.3332 47.3929V47.4954H98.1084V47.3929C98.1084 47.3385 98.0828 47.3064 98.0219 47.3032ZM96.4844 44.7407C96.494 44.7151 96.5068 44.683 96.5164 44.651C96.526 44.619 96.5388 44.5901 96.5484 44.5517C96.558 44.5901 96.5709 44.619 96.5805 44.651C96.5869 44.683 96.6029 44.7086 96.6093 44.7375L97.2371 46.2846H95.8629L96.4844 44.7407ZM103.695 44.3243V44.4108C103.695 44.4588 103.724 44.4844 103.781 44.4908H103.823C103.839 44.4908 103.871 44.494 103.916 44.494C103.961 44.494 104.005 44.5004 104.06 44.5004L103.298 46.9893C103.288 47.0182 103.278 47.0502 103.275 47.0854C103.269 47.1239 103.262 47.1527 103.253 47.1911C103.243 47.1527 103.24 47.1143 103.23 47.0822L103.201 46.9893L102.305 44.3819C102.298 44.3659 102.289 44.3467 102.276 44.3371C102.26 44.3275 102.244 44.3243 102.221 44.3243H102.157C102.135 44.3243 102.119 44.3275 102.103 44.3435C102.09 44.3563 102.077 44.3659 102.074 44.3819L101.177 46.9925C101.167 47.0246 101.158 47.0502 101.148 47.0854C101.139 47.1175 101.135 47.1527 101.126 47.1943C101.123 47.1623 101.113 47.1271 101.103 47.0854C101.1 47.0502 101.091 47.0182 101.081 46.9893L100.319 44.5004C100.373 44.5004 100.418 44.494 100.46 44.494C100.498 44.494 100.527 44.4908 100.543 44.4908H100.578C100.639 44.4844 100.668 44.4588 100.668 44.4108V44.3243H99.8157V44.4108C99.8157 44.4588 99.8477 44.4844 99.9054 44.4908H99.9374C99.9502 44.4908 99.9662 44.494 99.9886 44.494C100.011 44.494 100.037 44.5004 100.062 44.5004L101.01 47.4954H101.212L102.154 44.7407C102.167 44.7054 102.176 44.6702 102.186 44.6286C102.192 44.6702 102.202 44.7054 102.215 44.7407L103.153 47.4954H103.358L104.3 44.5004C104.329 44.5004 104.351 44.494 104.374 44.494C104.396 44.494 104.412 44.4908 104.428 44.4908H104.457C104.518 44.4844 104.544 44.4588 104.544 44.4108V44.3243H103.695ZM109.608 47.3032L109.457 47.2872L108.246 44.3211H108.019L106.805 47.2872L106.661 47.3032C106.603 47.3064 106.574 47.3385 106.574 47.3929V47.4954H107.346V47.3929C107.346 47.3321 107.311 47.3064 107.244 47.3032C107.237 47.3032 107.231 47.2968 107.215 47.2968C107.202 47.2968 107.186 47.2936 107.154 47.2936C107.122 47.2936 107.08 47.2936 107.036 47.2872L107.35 46.5121L107.372 46.4544H108.89L108.913 46.5121L109.227 47.2872C109.182 47.2936 109.143 47.2936 109.115 47.2936C109.082 47.2936 109.06 47.2968 109.047 47.2968C109.031 47.2968 109.025 47.3032 109.018 47.3032C108.951 47.3064 108.916 47.3321 108.916 47.3929V47.4954H109.691V47.3929C109.691 47.3385 109.665 47.3064 109.608 47.3032ZM108.067 44.7407C108.077 44.7151 108.09 44.683 108.099 44.651C108.109 44.619 108.122 44.5901 108.131 44.5517C108.141 44.5901 108.154 44.619 108.163 44.651C108.173 44.683 108.186 44.7086 108.195 44.7375L108.823 46.2846H107.446L108.067 44.7407ZM114.89 47.3257H114.8C114.771 47.3257 114.746 47.3193 114.72 47.3193L113.769 46.1213C113.74 46.086 113.705 46.054 113.669 46.0316C113.807 46.0188 113.935 45.9867 114.047 45.9387C114.16 45.8906 114.249 45.8266 114.329 45.7497C114.406 45.6728 114.467 45.5831 114.509 45.487C114.547 45.3877 114.57 45.2756 114.57 45.1539C114.57 44.8816 114.48 44.6798 114.3 44.5357C114.121 44.3947 113.849 44.3243 113.48 44.3243H112.334V44.4108C112.334 44.4588 112.359 44.4844 112.417 44.4908H112.462C112.484 44.4908 112.516 44.494 112.561 44.494C112.606 44.494 112.657 44.5004 112.708 44.5004V47.3161C112.657 47.3161 112.606 47.3193 112.561 47.3193C112.516 47.3193 112.484 47.3257 112.462 47.3257H112.417C112.359 47.3289 112.327 47.3545 112.327 47.4057V47.4954H113.314V47.4057C113.314 47.3545 113.285 47.3289 113.224 47.3257H113.179C113.157 47.3257 113.128 47.3193 113.083 47.3193C113.038 47.3193 112.994 47.3161 112.939 47.3161V46.0604H113.314C113.378 46.0604 113.423 46.0636 113.448 46.0764C113.477 46.0924 113.503 46.1181 113.532 46.1501L114.547 47.4378C114.566 47.4602 114.579 47.473 114.598 47.4826C114.614 47.489 114.637 47.4954 114.659 47.4954H114.973V47.4057C114.973 47.3545 114.948 47.3289 114.89 47.3257ZM113.448 45.8906H112.939V44.5036H113.48C113.762 44.5036 113.98 44.5613 114.128 44.6702C114.275 44.7759 114.345 44.9489 114.345 45.1731C114.345 45.2852 114.329 45.3781 114.288 45.4678C114.249 45.5575 114.185 45.628 114.108 45.692C114.031 45.7561 113.939 45.8073 113.826 45.8394C113.714 45.8714 113.589 45.8906 113.448 45.8906ZM117.603 44.3243V44.4108C117.603 44.4588 117.635 44.4844 117.693 44.4908H117.737C117.76 44.4908 117.792 44.494 117.837 44.494C117.882 44.494 117.93 44.5004 117.984 44.5004V47.3161C117.93 47.3161 117.882 47.3193 117.837 47.3193C117.792 47.3193 117.76 47.3257 117.737 47.3257H117.693C117.635 47.3289 117.606 47.3545 117.606 47.4057V47.4954H119.884V46.8356H119.772C119.711 46.8356 119.682 46.8772 119.679 46.9477C119.679 46.9573 119.675 46.9733 119.675 47.0053C119.675 47.0374 119.675 47.0822 119.669 47.1495C119.666 47.2168 119.659 47.2616 119.659 47.3032H118.212V45.9803H119.477V45.7945H118.212V44.5133H119.659C119.669 44.7087 119.679 44.8304 119.679 44.872C119.682 44.9425 119.711 44.9777 119.772 44.9777H119.884V44.3243H117.603ZM124.871 44.3243V44.4108C124.871 44.4588 124.903 44.4844 124.961 44.4908H125.006C125.028 44.4908 125.063 44.494 125.108 44.494C125.153 44.494 125.207 44.5004 125.262 44.5004V46.9829C125.262 47.0246 125.262 47.0694 125.265 47.1143L123.212 44.3659C123.199 44.3467 123.189 44.3339 123.176 44.3275C123.164 44.3243 123.151 44.3211 123.128 44.3211H122.635V44.4108C122.635 44.4588 122.664 44.4844 122.725 44.4908H122.77C122.792 44.4908 122.821 44.494 122.866 44.494C122.911 44.494 122.962 44.5004 123.016 44.5004V47.3161C122.962 47.3161 122.911 47.3193 122.866 47.3193C122.821 47.3193 122.792 47.3257 122.77 47.3257H122.725C122.664 47.3289 122.635 47.3545 122.635 47.4057V47.4954H123.603V47.4057C123.603 47.3545 123.57 47.3289 123.513 47.3257H123.468C123.446 47.3257 123.404 47.3193 123.359 47.3193C123.314 47.3193 123.266 47.3161 123.212 47.3161V44.8272C123.212 44.7855 123.212 44.7407 123.209 44.6958L125.271 47.4506C125.294 47.4826 125.316 47.4954 125.351 47.4954H125.464V44.5004C125.518 44.5004 125.563 44.494 125.608 44.494C125.653 44.494 125.688 44.4908 125.71 44.4908H125.752C125.81 44.4844 125.842 44.4588 125.842 44.4108V44.3243H124.871ZM128.414 44.3243V44.4108C128.414 44.4588 128.446 44.4844 128.503 44.4908H128.548C128.571 44.4908 128.603 44.494 128.648 44.494C128.692 44.494 128.74 44.5004 128.795 44.5004V47.3161C128.74 47.3161 128.692 47.3193 128.648 47.3193C128.603 47.3193 128.571 47.3257 128.548 47.3257H128.503C128.446 47.3289 128.42 47.3545 128.42 47.4057V47.4954H130.698V46.8356H130.585C130.521 46.8356 130.496 46.8772 130.489 46.9477C130.489 46.9573 130.486 46.9733 130.486 47.0053C130.486 47.0374 130.486 47.0822 130.483 47.1495C130.477 47.2168 130.473 47.2616 130.473 47.3032H129.026V45.9803H130.288V45.7945H129.026V44.5133H130.473C130.483 44.7087 130.489 44.8304 130.489 44.872C130.496 44.9425 130.521 44.9777 130.585 44.9777H130.698V44.3243H128.414ZM135.281 46.243C135.236 46.1597 135.172 46.0764 135.096 46.0188C135.019 45.9611 134.939 45.9131 134.846 45.8714C134.75 45.8298 134.647 45.7945 134.548 45.7625C134.452 45.7337 134.352 45.6952 134.256 45.6664C134.163 45.628 134.077 45.5895 134.003 45.5383C133.926 45.4902 133.869 45.4326 133.824 45.3589C133.779 45.2884 133.75 45.1987 133.75 45.0898C133.75 45.0098 133.769 44.9329 133.801 44.8592C133.83 44.7823 133.875 44.7183 133.936 44.6606C133.994 44.6029 134.064 44.5581 134.154 44.5261C134.243 44.494 134.343 44.478 134.458 44.478C134.676 44.478 134.871 44.5133 135.051 44.5901C135.064 44.8432 135.073 44.9873 135.073 45.0098C135.08 45.0834 135.105 45.1219 135.169 45.1219H135.275V44.4716C134.993 44.3499 134.724 44.289 134.458 44.289C134.311 44.289 134.183 44.3115 134.064 44.3563C133.949 44.4011 133.853 44.4588 133.779 44.5357C133.702 44.6126 133.638 44.6958 133.6 44.7951C133.558 44.8944 133.539 44.9969 133.539 45.1058C133.539 45.2404 133.561 45.3557 133.606 45.4454C133.651 45.5351 133.715 45.6055 133.792 45.6696C133.869 45.7337 133.949 45.7785 134.042 45.817C134.138 45.8586 134.24 45.8938 134.34 45.9259C134.436 45.9579 134.532 45.9867 134.631 46.0188C134.724 46.0508 134.81 46.0956 134.884 46.1437C134.961 46.1949 135.019 46.2526 135.064 46.3231C135.108 46.3967 135.131 46.4896 135.131 46.6017C135.131 46.7042 135.115 46.8035 135.08 46.8932C135.041 46.9829 134.993 47.0598 134.926 47.1271C134.859 47.1943 134.772 47.2488 134.676 47.284C134.577 47.3257 134.465 47.3385 134.34 47.3385C134.087 47.3385 133.875 47.2968 133.705 47.2168C133.702 47.1527 133.702 47.0854 133.696 47.0149C133.693 46.9445 133.693 46.8836 133.689 46.8356C133.683 46.7875 133.683 46.7587 133.683 46.7555C133.68 46.6818 133.648 46.6466 133.584 46.6466H133.478V47.3545C133.75 47.473 134.032 47.5307 134.33 47.5307C134.49 47.5307 134.634 47.505 134.759 47.4538C134.884 47.4057 134.993 47.3321 135.08 47.2488C135.163 47.1623 135.236 47.0598 135.281 46.9445C135.326 46.826 135.349 46.701 135.349 46.5665C135.349 46.4352 135.326 46.3295 135.281 46.243ZM139.827 46.243C139.782 46.1597 139.721 46.0764 139.644 46.0188C139.567 45.9611 139.487 45.9131 139.391 45.8714C139.298 45.8298 139.196 45.7945 139.096 45.7625C138.997 45.7337 138.898 45.6952 138.805 45.6664C138.712 45.628 138.625 45.5895 138.549 45.5383C138.472 45.4902 138.414 45.4326 138.369 45.3589C138.324 45.2884 138.299 45.1987 138.299 45.0898C138.299 45.0098 138.315 44.9329 138.347 44.8592C138.379 44.7823 138.424 44.7183 138.481 44.6606C138.539 44.6029 138.613 44.5581 138.702 44.5261C138.792 44.494 138.891 44.478 139.007 44.478C139.221 44.478 139.42 44.5133 139.599 44.5901C139.612 44.8432 139.622 44.9873 139.622 45.0098C139.625 45.0834 139.654 45.1219 139.715 45.1219H139.823V44.4716C139.542 44.3499 139.273 44.289 139.007 44.289C138.859 44.289 138.728 44.3115 138.613 44.3563C138.494 44.4011 138.401 44.4588 138.324 44.5357C138.247 44.6126 138.187 44.6958 138.145 44.7951C138.107 44.8944 138.087 44.9969 138.087 45.1058C138.087 45.2404 138.11 45.3557 138.155 45.4454C138.199 45.5351 138.264 45.6055 138.337 45.6696C138.414 45.7337 138.494 45.7785 138.59 45.817C138.683 45.8586 138.786 45.8938 138.885 45.9259C138.984 45.9579 139.077 45.9867 139.176 46.0188C139.273 46.0508 139.356 46.0956 139.433 46.1437C139.51 46.1949 139.567 46.2526 139.612 46.3231C139.657 46.3967 139.679 46.4896 139.679 46.6017C139.679 46.7042 139.66 46.8035 139.625 46.8932C139.59 46.9829 139.542 47.0598 139.474 47.1271C139.407 47.1943 139.321 47.2488 139.221 47.284C139.122 47.3257 139.01 47.3385 138.885 47.3385C138.635 47.3385 138.424 47.2968 138.254 47.2168C138.247 47.1527 138.247 47.0854 138.244 47.0149C138.241 46.9445 138.241 46.8836 138.235 46.8356C138.231 46.7875 138.231 46.7587 138.231 46.7555C138.225 46.6818 138.196 46.6466 138.132 46.6466H138.023V47.3545C138.299 47.473 138.581 47.5307 138.875 47.5307C139.039 47.5307 139.183 47.505 139.308 47.4538C139.433 47.4057 139.542 47.3321 139.625 47.2488C139.711 47.1623 139.782 47.0598 139.827 46.9445C139.872 46.826 139.894 46.701 139.894 46.5665C139.894 46.4352 139.872 46.3295 139.827 46.243ZM148.831 45.9066C148.831 45.6664 148.792 45.4422 148.719 45.2436C148.648 45.045 148.546 44.8752 148.411 44.7311C148.277 44.5901 148.12 44.478 147.934 44.4011C147.751 44.3243 147.54 44.2826 147.316 44.2826C147.091 44.2826 146.89 44.3243 146.707 44.4011C146.521 44.478 146.361 44.5901 146.227 44.7311C146.092 44.8752 145.99 45.045 145.916 45.2436C145.845 45.4422 145.804 45.6664 145.804 45.9066C145.804 46.1533 145.845 46.3775 145.916 46.5761C145.99 46.7715 146.092 46.9445 146.227 47.0854C146.361 47.2296 146.521 47.3385 146.707 47.4154C146.89 47.489 147.091 47.5307 147.316 47.5307C147.54 47.5307 147.751 47.489 147.934 47.4154C148.12 47.3385 148.277 47.2296 148.411 47.0854C148.546 46.9445 148.648 46.7715 148.719 46.5761C148.792 46.3775 148.831 46.1533 148.831 45.9066ZM148.591 45.9066C148.591 46.1309 148.562 46.3295 148.501 46.5024C148.437 46.6786 148.354 46.8324 148.241 46.9509C148.129 47.0726 147.995 47.1719 147.838 47.236C147.681 47.2968 147.508 47.3289 147.316 47.3289C147.127 47.3289 146.957 47.2968 146.8 47.236C146.643 47.1719 146.508 47.0726 146.396 46.9509C146.284 46.8324 146.195 46.6786 146.134 46.5024C146.07 46.3295 146.044 46.1309 146.044 45.9066C146.044 45.6888 146.07 45.487 146.134 45.3108C146.195 45.1347 146.284 44.9841 146.396 44.8624C146.508 44.7407 146.643 44.6414 146.8 44.5805C146.957 44.5165 147.127 44.4812 147.316 44.4812C147.508 44.4812 147.681 44.5165 147.838 44.5805C147.995 44.6414 148.129 44.7407 148.241 44.8624C148.354 44.9841 148.437 45.1347 148.501 45.3108C148.562 45.487 148.591 45.6888 148.591 45.9066ZM153.629 44.3243V44.4108C153.629 44.4588 153.661 44.4844 153.719 44.4908H153.764C153.786 44.4908 153.825 44.494 153.869 44.494C153.914 44.494 153.966 44.5004 154.02 44.5004V46.9829C154.02 47.0246 154.02 47.0694 154.026 47.1143L151.97 44.3659C151.957 44.3467 151.948 44.3339 151.935 44.3275C151.922 44.3243 151.909 44.3211 151.887 44.3211H151.393V44.4108C151.393 44.4588 151.425 44.4844 151.483 44.4908H151.528C151.55 44.4908 151.582 44.494 151.627 44.494C151.672 44.494 151.72 44.5004 151.775 44.5004V47.3161C151.72 47.3161 151.672 47.3193 151.627 47.3193C151.582 47.3193 151.55 47.3257 151.528 47.3257H151.483C151.425 47.3289 151.393 47.3545 151.393 47.4057V47.4954H152.361V47.4057C152.361 47.3545 152.329 47.3289 152.271 47.3257H152.226C152.204 47.3257 152.165 47.3193 152.12 47.3193C152.076 47.3193 152.024 47.3161 151.97 47.3161V44.8272C151.97 44.7855 151.97 44.7407 151.967 44.6958L154.03 47.4506C154.052 47.4826 154.074 47.4954 154.11 47.4954H154.222V44.5004C154.276 44.5004 154.321 44.494 154.366 44.494C154.411 44.494 154.446 44.4908 154.468 44.4908H154.51C154.568 44.4844 154.6 44.4588 154.6 44.4108V44.3243H153.629ZM157.172 44.3243V44.4108C157.172 44.4588 157.204 44.4844 157.262 44.4908H157.306C157.329 44.4908 157.361 44.494 157.406 44.494C157.451 44.494 157.502 44.5004 157.553 44.5004V47.3161C157.502 47.3161 157.451 47.3193 157.406 47.3193C157.361 47.3193 157.329 47.3257 157.306 47.3257H157.262C157.204 47.3289 157.178 47.3545 157.178 47.4057V47.4954H159.456V46.8356H159.344C159.28 46.8356 159.254 46.8772 159.251 46.9477C159.251 46.9573 159.244 46.9733 159.244 47.0053C159.244 47.0374 159.244 47.0822 159.241 47.1495C159.235 47.2168 159.232 47.2616 159.232 47.3032H157.784V45.9803H159.049V45.7945H157.784V44.5133H159.232C159.241 44.7087 159.251 44.8304 159.251 44.872C159.254 44.9425 159.28 44.9777 159.344 44.9777H159.456V44.3243H157.172ZM168.002 46.9797C167.995 46.9701 167.979 46.9605 167.967 46.9605C167.957 46.9605 167.954 46.9605 167.944 46.9669C167.941 46.9701 167.931 46.9797 167.922 46.9829C167.861 47.0406 167.794 47.0918 167.73 47.1367C167.666 47.1815 167.598 47.2135 167.525 47.2424C167.448 47.2744 167.368 47.2968 167.278 47.3096C167.188 47.3257 167.089 47.3321 166.977 47.3321C166.797 47.3321 166.621 47.3032 166.471 47.236C166.314 47.1719 166.182 47.079 166.07 46.9573C165.958 46.8356 165.865 46.6818 165.801 46.5088C165.737 46.3327 165.708 46.1309 165.708 45.9066C165.708 45.6888 165.737 45.4902 165.801 45.3141C165.869 45.1411 165.958 44.9937 166.074 44.8656C166.192 44.7471 166.33 44.651 166.493 44.5837C166.653 44.5165 166.83 44.4844 167.022 44.4844C167.307 44.4844 167.573 44.5293 167.806 44.635C167.819 44.9201 167.832 45.0866 167.832 45.1219C167.839 45.1955 167.864 45.2308 167.928 45.2308H168.034V44.5133C167.659 44.3595 167.316 44.289 167.022 44.289C166.791 44.289 166.586 44.3243 166.394 44.4043C166.205 44.4844 166.035 44.5933 165.901 44.7375C165.76 44.8816 165.657 45.0514 165.58 45.2468C165.507 45.4454 165.468 45.6664 165.468 45.9066C165.468 46.1533 165.51 46.3743 165.58 46.5761C165.654 46.7779 165.756 46.9445 165.888 47.0854C166.016 47.2296 166.173 47.3385 166.359 47.4154C166.541 47.489 166.74 47.5307 166.958 47.5307C167.089 47.5307 167.211 47.5211 167.323 47.4986C167.428 47.4762 167.531 47.4442 167.627 47.4057C167.717 47.3641 167.8 47.3161 167.877 47.2616C167.954 47.2039 168.024 47.1463 168.092 47.0726L168.002 46.9797ZM173.627 45.9066C173.627 45.6664 173.585 45.4422 173.515 45.2436C173.444 45.045 173.338 44.8752 173.204 44.7311C173.069 44.5901 172.912 44.478 172.73 44.4011C172.547 44.3243 172.336 44.2826 172.112 44.2826C171.887 44.2826 171.686 44.3243 171.5 44.4011C171.317 44.478 171.157 44.5901 171.022 44.7311C170.888 44.8752 170.782 45.045 170.712 45.2436C170.641 45.4422 170.6 45.6664 170.6 45.9066C170.6 46.1533 170.641 46.3775 170.712 46.5761C170.782 46.7715 170.888 46.9445 171.022 47.0854C171.157 47.2296 171.317 47.3385 171.5 47.4154C171.686 47.489 171.887 47.5307 172.112 47.5307C172.336 47.5307 172.547 47.489 172.73 47.4154C172.912 47.3385 173.069 47.2296 173.204 47.0854C173.338 46.9445 173.444 46.7715 173.515 46.5761C173.585 46.3775 173.627 46.1533 173.627 45.9066ZM173.383 45.9066C173.383 46.1309 173.358 46.3295 173.294 46.5024C173.233 46.6786 173.146 46.8324 173.034 46.9509C172.922 47.0726 172.787 47.1719 172.63 47.236C172.474 47.2968 172.304 47.3289 172.112 47.3289C171.923 47.3289 171.753 47.2968 171.596 47.236C171.439 47.1719 171.304 47.0726 171.192 46.9509C171.08 46.8324 170.99 46.6786 170.926 46.5024C170.866 46.3295 170.837 46.1309 170.837 45.9066C170.837 45.6888 170.866 45.487 170.926 45.3108C170.99 45.1347 171.08 44.9841 171.192 44.8624C171.304 44.7407 171.439 44.6414 171.596 44.5805C171.753 44.5165 171.923 44.4812 172.112 44.4812C172.304 44.4812 172.474 44.5165 172.63 44.5805C172.787 44.6414 172.922 44.7407 173.034 44.8624C173.146 44.9841 173.233 45.1347 173.294 45.3108C173.358 45.487 173.383 45.6888 173.383 45.9066ZM179.991 44.4908C180.049 44.4844 180.081 44.4588 180.081 44.4108V44.3243H179.543C179.521 44.3243 179.505 44.3243 179.492 44.3275C179.479 44.3339 179.469 44.3467 179.456 44.3659L178.21 46.5665C178.198 46.5889 178.188 46.6114 178.178 46.6338C178.169 46.6562 178.159 46.6818 178.153 46.7042C178.134 46.6562 178.114 46.6114 178.092 46.5697L176.811 44.3659C176.798 44.3467 176.788 44.3339 176.775 44.3275C176.763 44.3243 176.747 44.3243 176.724 44.3243H176.186V44.4108C176.186 44.4588 176.218 44.4844 176.276 44.4908H176.321C176.343 44.4908 176.375 44.494 176.42 44.494C176.465 44.494 176.516 44.5004 176.567 44.5004V47.3161C176.516 47.3161 176.465 47.3193 176.42 47.3193C176.375 47.3193 176.343 47.3257 176.321 47.3257H176.276C176.218 47.3289 176.186 47.3545 176.186 47.4057V47.4954H177.157V47.4057C177.157 47.3545 177.125 47.3289 177.067 47.3257H177.022C177 47.3257 176.964 47.3193 176.92 47.3193C176.875 47.3193 176.82 47.3161 176.766 47.3161V44.7919C176.766 44.7503 176.766 44.7086 176.763 44.6638L178.044 46.8836C178.066 46.9253 178.098 46.9445 178.134 46.9445H178.169C178.21 46.9445 178.236 46.9253 178.258 46.8836L179.505 44.6638C179.501 44.7086 179.501 44.7503 179.501 44.7919V47.3161C179.447 47.3161 179.392 47.3193 179.348 47.3193C179.303 47.3193 179.267 47.3257 179.245 47.3257H179.2C179.143 47.3289 179.111 47.3545 179.111 47.4057V47.4954H180.081V47.4057C180.081 47.3545 180.049 47.3289 179.991 47.3257H179.95C179.927 47.3257 179.892 47.3193 179.847 47.3193C179.802 47.3193 179.758 47.3161 179.703 47.3161V44.5004C179.758 44.5004 179.802 44.494 179.847 44.494C179.892 44.494 179.927 44.4908 179.95 44.4908H179.991ZM186.555 44.4908C186.612 44.4844 186.644 44.4588 186.644 44.4108V44.3243H186.106C186.084 44.3243 186.071 44.3243 186.058 44.3275C186.045 44.3339 186.036 44.3467 186.023 44.3659L184.774 46.5665C184.761 46.5889 184.751 46.6114 184.745 46.6338C184.735 46.6562 184.726 46.6818 184.716 46.7042C184.7 46.6562 184.681 46.6114 184.658 46.5697L183.377 44.3659C183.361 44.3467 183.355 44.3339 183.339 44.3275C183.326 44.3243 183.313 44.3243 183.291 44.3243H182.753V44.4108C182.753 44.4588 182.785 44.4844 182.842 44.4908H182.887C182.91 44.4908 182.942 44.494 182.986 44.494C183.031 44.494 183.079 44.5004 183.134 44.5004V47.3161C183.079 47.3161 183.031 47.3193 182.986 47.3193C182.942 47.3193 182.91 47.3257 182.887 47.3257H182.842C182.785 47.3289 182.753 47.3545 182.753 47.4057V47.4954H183.72V47.4057C183.72 47.3545 183.691 47.3289 183.63 47.3257H183.585C183.563 47.3257 183.528 47.3193 183.483 47.3193C183.438 47.3193 183.384 47.3161 183.332 47.3161V44.7919C183.332 44.7503 183.332 44.7086 183.326 44.6638L184.61 46.8836C184.633 46.9253 184.662 46.9445 184.7 46.9445H184.735C184.774 46.9445 184.803 46.9253 184.825 46.8836L186.071 44.6638C186.068 44.7086 186.068 44.7503 186.068 44.7919V47.3161C186.013 47.3161 185.959 47.3193 185.914 47.3193C185.869 47.3193 185.834 47.3257 185.812 47.3257H185.767C185.709 47.3289 185.677 47.3545 185.677 47.4057V47.4954H186.644V47.4057C186.644 47.3545 186.612 47.3289 186.555 47.3257H186.516C186.494 47.3257 186.455 47.3193 186.411 47.3193C186.366 47.3193 186.321 47.3161 186.27 47.3161V44.5004C186.321 44.5004 186.366 44.494 186.411 44.494C186.455 44.494 186.494 44.4908 186.516 44.4908H186.555ZM191.318 44.3243V44.4108C191.318 44.4588 191.35 44.4844 191.408 44.4908H191.462C191.494 44.4908 191.539 44.494 191.59 44.494C191.645 44.494 191.699 44.5004 191.753 44.5004V46.2846C191.753 46.432 191.731 46.5665 191.686 46.6978C191.641 46.826 191.577 46.9381 191.494 47.0342C191.408 47.1271 191.308 47.1975 191.187 47.252C191.068 47.3064 190.933 47.3321 190.78 47.3321C190.626 47.3321 190.488 47.3064 190.367 47.252C190.245 47.1975 190.142 47.1239 190.062 47.0278C189.976 46.9349 189.918 46.8228 189.873 46.6978C189.828 46.5697 189.806 46.432 189.806 46.2846V44.5004C189.86 44.5004 189.915 44.494 189.969 44.494C190.021 44.494 190.065 44.4908 190.097 44.4908H190.152C190.21 44.4844 190.242 44.4588 190.242 44.4108V44.3243H189.201V44.4108C189.201 44.4588 189.229 44.4844 189.287 44.4908H189.332C189.354 44.4908 189.386 44.494 189.431 44.494C189.476 44.494 189.524 44.5004 189.579 44.5004V46.2846C189.579 46.4576 189.604 46.621 189.659 46.7715C189.713 46.9253 189.793 47.0598 189.896 47.1719C189.998 47.284 190.129 47.3737 190.277 47.4378C190.424 47.4986 190.597 47.5307 190.78 47.5307C190.962 47.5307 191.129 47.4986 191.276 47.4378C191.427 47.3737 191.555 47.284 191.657 47.1719C191.763 47.0598 191.843 46.9253 191.898 46.7715C191.949 46.621 191.981 46.4576 191.981 46.2846V44.5004C192.035 44.5004 192.08 44.494 192.125 44.494C192.17 44.494 192.205 44.4908 192.228 44.4908H192.269C192.327 44.4844 192.359 44.4588 192.359 44.4108V44.3243H191.318ZM197.167 44.3243V44.4108C197.167 44.4588 197.196 44.4844 197.257 44.4908H197.301C197.324 44.4908 197.359 44.494 197.404 44.494C197.449 44.494 197.503 44.5004 197.554 44.5004V46.9829C197.554 47.0246 197.554 47.0694 197.561 47.1143L195.508 44.3659C195.492 44.3467 195.485 44.3339 195.469 44.3275C195.456 44.3243 195.444 44.3211 195.421 44.3211H194.928V44.4108C194.928 44.4588 194.96 44.4844 195.018 44.4908H195.062C195.085 44.4908 195.117 44.494 195.162 44.494C195.207 44.494 195.255 44.5004 195.309 44.5004V47.3161C195.255 47.3161 195.207 47.3193 195.162 47.3193C195.117 47.3193 195.085 47.3257 195.062 47.3257H195.018C194.96 47.3289 194.928 47.3545 194.928 47.4057V47.4954H195.895V47.4057C195.895 47.3545 195.866 47.3289 195.806 47.3257H195.761C195.738 47.3257 195.7 47.3193 195.655 47.3193C195.61 47.3193 195.559 47.3161 195.508 47.3161V44.8272C195.508 44.7855 195.508 44.7407 195.501 44.6958L197.564 47.4506C197.586 47.4826 197.609 47.4954 197.644 47.4954H197.756V44.5004C197.811 44.5004 197.856 44.494 197.9 44.494C197.945 44.494 197.98 44.4908 198.003 44.4908H198.045C198.102 44.4844 198.134 44.4588 198.134 44.4108V44.3243H197.167ZM201.61 44.4908C201.667 44.4844 201.696 44.4588 201.696 44.4108V44.3211H200.71V44.4108C200.71 44.4588 200.738 44.4844 200.799 44.4908H200.844C200.867 44.4908 200.895 44.494 200.94 44.494C200.985 44.494 201.036 44.5004 201.091 44.5004V47.3161C201.036 47.3161 200.985 47.3193 200.94 47.3193C200.895 47.3193 200.867 47.3257 200.844 47.3257H200.799C200.738 47.3289 200.71 47.3545 200.71 47.4057V47.4954H201.696V47.4057C201.696 47.3545 201.667 47.3289 201.61 47.3257H201.565C201.542 47.3257 201.51 47.3193 201.466 47.3193C201.421 47.3193 201.373 47.3161 201.318 47.3161V44.5004C201.373 44.5004 201.421 44.494 201.466 44.494C201.51 44.494 201.542 44.4908 201.565 44.4908H201.61ZM204.278 44.3243V44.9777H204.39C204.454 44.9777 204.48 44.9425 204.483 44.872C204.483 44.84 204.493 44.7247 204.502 44.5165H205.431V47.3161C205.377 47.3161 205.332 47.3193 205.287 47.3193C205.242 47.3193 205.207 47.3257 205.184 47.3257H205.143C205.085 47.3289 205.053 47.3545 205.053 47.4057V47.4954H206.04V47.4057C206.04 47.3545 206.008 47.3289 205.95 47.3257H205.905C205.883 47.3257 205.851 47.3193 205.806 47.3193C205.761 47.3193 205.713 47.3161 205.659 47.3161V44.5165H206.584C206.597 44.7471 206.6 44.8624 206.6 44.872C206.607 44.9425 206.635 44.9777 206.7 44.9777H206.808V44.3243H204.278ZM211.322 44.3243V44.4108C211.322 44.4588 211.354 44.4844 211.411 44.4908H211.45C211.466 44.4908 211.488 44.494 211.524 44.494C211.562 44.494 211.6 44.5004 211.645 44.5004L210.816 45.8362C210.793 45.8714 210.777 45.9034 210.761 45.9355C210.748 45.9643 210.736 46.0027 210.723 46.0316C210.71 46.0027 210.694 45.9643 210.681 45.9355C210.668 45.9034 210.649 45.8714 210.627 45.8362L209.794 44.5004C209.839 44.5004 209.88 44.494 209.916 44.494C209.951 44.494 209.976 44.4908 209.996 44.4908H210.028C210.085 44.4844 210.117 44.4588 210.117 44.4108V44.3243H209.288V44.4108C209.288 44.4588 209.32 44.4844 209.377 44.4908C209.454 44.494 209.512 44.5004 209.544 44.5004L210.604 46.1853V47.3161C210.553 47.3161 210.502 47.3193 210.457 47.3193C210.412 47.3193 210.38 47.3257 210.358 47.3257H210.319C210.261 47.3289 210.229 47.3545 210.229 47.4057V47.4954H211.21V47.4057C211.21 47.3545 211.184 47.3289 211.126 47.3257H211.081C211.059 47.3257 211.027 47.3193 210.982 47.3193C210.937 47.3193 210.889 47.3161 210.835 47.3161V46.1853L211.898 44.5004C211.934 44.5004 211.988 44.494 212.062 44.4908C212.123 44.4844 212.151 44.4588 212.151 44.4108V44.3243H211.322ZM221.027 47.3032L220.88 47.2872L219.669 44.3211H219.439L218.225 47.2872L218.08 47.3032C218.023 47.3064 217.997 47.3385 217.997 47.3929V47.4954H218.766V47.3929C218.766 47.3321 218.731 47.3064 218.663 47.3032C218.66 47.3032 218.651 47.2968 218.638 47.2968C218.625 47.2968 218.606 47.2936 218.574 47.2936C218.542 47.2936 218.503 47.2936 218.458 47.2872L218.772 46.5121L218.795 46.4544H220.31L220.332 46.5121L220.646 47.2872C220.601 47.2936 220.566 47.2936 220.534 47.2936C220.502 47.2936 220.48 47.2968 220.467 47.2968C220.454 47.2968 220.444 47.3032 220.441 47.3032C220.374 47.3064 220.335 47.3321 220.335 47.3929V47.4954H221.114V47.3929C221.114 47.3385 221.085 47.3064 221.027 47.3032ZM219.49 44.7407C219.499 44.7151 219.512 44.683 219.522 44.651C219.528 44.619 219.544 44.5901 219.551 44.5517C219.56 44.5901 219.573 44.619 219.583 44.651C219.592 44.683 219.605 44.7086 219.615 44.7375L220.243 46.2846H218.865L219.49 44.7407ZM223.311 44.3243V44.9777H223.423C223.484 44.9777 223.513 44.9425 223.516 44.872C223.516 44.84 223.526 44.7247 223.535 44.5165H224.461V47.3161C224.41 47.3161 224.365 47.3193 224.32 47.3193C224.275 47.3193 224.237 47.3257 224.215 47.3257H224.176C224.118 47.3289 224.086 47.3545 224.086 47.4057V47.4954H225.073V47.4057C225.073 47.3545 225.041 47.3289 224.983 47.3257H224.938C224.916 47.3257 224.884 47.3193 224.839 47.3193C224.794 47.3193 224.746 47.3161 224.692 47.3161V44.5165H225.614C225.627 44.7471 225.634 44.8624 225.634 44.872C225.637 44.9425 225.669 44.9777 225.733 44.9777H225.839V44.3243H223.311ZM234.737 47.3032L234.59 47.2872L233.379 44.3211H233.148L231.934 47.2872L231.79 47.3032C231.732 47.3064 231.704 47.3385 231.704 47.3929V47.4954H232.476V47.3929C232.476 47.3321 232.44 47.3064 232.373 47.3032C232.37 47.3032 232.36 47.2968 232.347 47.2968C232.331 47.2968 232.315 47.2936 232.283 47.2936C232.251 47.2936 232.213 47.2936 232.168 47.2872L232.482 46.5121L232.504 46.4544H234.019L234.042 46.5121L234.356 47.2872C234.311 47.2936 234.276 47.2936 234.244 47.2936C234.212 47.2936 234.189 47.2968 234.176 47.2968C234.164 47.2968 234.154 47.3032 234.148 47.3032C234.08 47.3064 234.045 47.3321 234.045 47.3929V47.4954H234.82V47.3929C234.82 47.3385 234.795 47.3064 234.737 47.3032ZM233.199 44.7407C233.206 44.7151 233.222 44.683 233.228 44.651C233.238 44.619 233.251 44.5901 233.26 44.5517C233.27 44.5901 233.283 44.619 233.292 44.651C233.302 44.683 233.315 44.7086 233.324 44.7375L233.952 46.2846H232.575L233.199 44.7407ZM240.692 44.3243V44.9777H240.804C240.868 44.9777 240.894 44.9425 240.897 44.872C240.897 44.84 240.906 44.7247 240.916 44.5165H241.845V47.3161C241.79 47.3161 241.746 47.3193 241.701 47.3193C241.656 47.3193 241.621 47.3257 241.598 47.3257H241.557C241.499 47.3289 241.467 47.3545 241.467 47.4057V47.4954H242.453V47.4057C242.453 47.3545 242.421 47.3289 242.364 47.3257H242.319C242.297 47.3257 242.264 47.3193 242.22 47.3193C242.175 47.3193 242.127 47.3161 242.072 47.3161V44.5165H242.998C243.011 44.7471 243.014 44.8624 243.014 44.872C243.02 44.9425 243.049 44.9777 243.113 44.9777H243.222V44.3243H240.692ZM246.72 44.4908C246.778 44.4844 246.803 44.4588 246.803 44.4108V44.3211H245.817V44.4108C245.817 44.4588 245.849 44.4844 245.907 44.4908H245.951C245.974 44.4908 246.006 44.494 246.051 44.494C246.095 44.494 246.144 44.5004 246.198 44.5004V47.3161C246.144 47.3161 246.095 47.3193 246.051 47.3193C246.006 47.3193 245.974 47.3257 245.951 47.3257H245.907C245.849 47.3289 245.817 47.3545 245.817 47.4057V47.4954H246.803V47.4057C246.803 47.3545 246.778 47.3289 246.72 47.3257H246.675C246.653 47.3257 246.621 47.3193 246.576 47.3193C246.531 47.3193 246.48 47.3161 246.429 47.3161V44.5004C246.48 44.5004 246.531 44.494 246.576 44.494C246.621 44.494 246.653 44.4908 246.675 44.4908H246.72ZM253.28 44.4908C253.338 44.4844 253.37 44.4588 253.37 44.4108V44.3243H252.832C252.809 44.3243 252.797 44.3243 252.781 44.3275C252.768 44.3339 252.758 44.3467 252.745 44.3659L251.499 46.5665C251.486 46.5889 251.477 46.6114 251.467 46.6338C251.458 46.6562 251.451 46.6818 251.442 46.7042C251.422 46.6562 251.406 46.6114 251.384 46.5697L250.099 44.3659C250.087 44.3467 250.077 44.3339 250.064 44.3275C250.051 44.3243 250.039 44.3243 250.016 44.3243H249.478V44.4108C249.478 44.4588 249.507 44.4844 249.568 44.4908H249.613C249.635 44.4908 249.664 44.494 249.709 44.494C249.754 44.494 249.805 44.5004 249.859 44.5004V47.3161C249.805 47.3161 249.754 47.3193 249.709 47.3193C249.664 47.3193 249.635 47.3257 249.613 47.3257H249.568C249.507 47.3289 249.478 47.3545 249.478 47.4057V47.4954H250.445V47.4057C250.445 47.3545 250.413 47.3289 250.356 47.3257H250.311C250.288 47.3257 250.253 47.3193 250.208 47.3193C250.164 47.3193 250.109 47.3161 250.055 47.3161V44.7919C250.055 44.7503 250.055 44.7086 250.051 44.6638L251.333 46.8836C251.355 46.9253 251.387 46.9445 251.422 46.9445H251.458C251.499 46.9445 251.525 46.9253 251.547 46.8836L252.797 44.6638C252.79 44.7086 252.79 44.7503 252.79 44.7919V47.3161C252.736 47.3161 252.684 47.3193 252.64 47.3193C252.595 47.3193 252.556 47.3257 252.534 47.3257H252.489C252.431 47.3289 252.399 47.3545 252.399 47.4057V47.4954H253.37V47.4057C253.37 47.3545 253.338 47.3289 253.28 47.3257H253.239C253.216 47.3257 253.181 47.3193 253.136 47.3193C253.091 47.3193 253.046 47.3161 252.992 47.3161V44.5004C253.046 44.5004 253.091 44.494 253.136 44.494C253.181 44.494 253.216 44.4908 253.239 44.4908H253.28ZM256.041 44.3243V44.4108C256.041 44.4588 256.073 44.4844 256.131 44.4908H256.176C256.198 44.4908 256.23 44.494 256.275 44.494C256.32 44.494 256.368 44.5004 256.423 44.5004V47.3161C256.368 47.3161 256.32 47.3193 256.275 47.3193C256.23 47.3193 256.198 47.3257 256.176 47.3257H256.131C256.073 47.3289 256.048 47.3545 256.048 47.4057V47.4954H258.325V46.8356H258.213C258.149 46.8356 258.123 46.8772 258.117 46.9477C258.117 46.9573 258.114 46.9733 258.114 47.0053C258.114 47.0374 258.114 47.0822 258.111 47.1495C258.104 47.2168 258.101 47.2616 258.101 47.3032H256.653V45.9803H257.915V45.7945H256.653V44.5133H258.101C258.111 44.7087 258.117 44.8304 258.117 44.872C258.123 44.9425 258.149 44.9777 258.213 44.9777H258.325V44.3243H256.041ZM261.163 47.3257C261.163 47.3833 261.182 47.4282 261.221 47.4666C261.263 47.5082 261.311 47.5307 261.368 47.5307C261.397 47.5307 261.423 47.5211 261.452 47.5114C261.477 47.505 261.496 47.4858 261.512 47.4666C261.532 47.4506 261.548 47.4314 261.557 47.4057C261.567 47.3769 261.576 47.3545 261.576 47.3257C261.576 47.2968 261.567 47.2712 261.557 47.2424C261.548 47.2168 261.532 47.1943 261.512 47.1751C261.496 47.1591 261.477 47.1399 261.452 47.1303C261.423 47.1239 261.397 47.1143 261.368 47.1143C261.339 47.1143 261.311 47.1239 261.285 47.1303C261.256 47.1399 261.24 47.1591 261.221 47.1751C261.205 47.1943 261.186 47.2168 261.176 47.2424C261.166 47.2712 261.163 47.2968 261.163 47.3257Z" fill="black"/>
<defs>
<linearGradient id="paint0_linear_571_438" x1="-20.9436" y1="3.5106" x2="11.6602" y2="104.681" gradientUnits="userSpaceOnUse">
<stop stop-color="#288642"/>
<stop offset="1" stop-color="#27FDFD"/>
</linearGradient>
</defs>
</svg>
