<svg width="44" height="51" viewBox="0 0 44 51" fill="none" xmlns="http://www.w3.org/2000/svg">
<path d="M21.8358 0.70313C16.8809 0.699461 12.0806 2.71727 8.26494 6.40767C4.44931 10.0981 1.85821 15.2291 0.939668 20.9134C0.0211258 26.5978 0.832884 32.4782 3.23459 37.5379C5.63629 42.5976 9.47694 46.5185 14.0925 48.6226C13.9065 46.6596 13.7365 43.6421 14.1642 41.4992C14.552 39.5609 16.6559 29.1658 16.6559 29.1658C16.6559 29.1658 16.021 27.6803 16.021 25.4847C16.021 22.0331 17.7344 19.4591 19.8674 19.4591C21.6791 19.4591 22.5557 21.0469 22.5557 22.9541C22.5557 25.0815 21.3948 28.2633 20.7945 31.2126C20.2951 33.6811 21.8571 35.6969 23.9423 35.6969C27.7197 35.6969 30.6231 31.0451 30.6231 24.3341C30.6231 18.3954 26.9653 14.2429 21.7455 14.2429C15.6996 14.2429 12.1507 19.5366 12.1507 25.0071C12.1507 27.1407 12.8546 29.4263 13.7312 30.6699C13.8067 30.7636 13.8601 30.8786 13.8861 31.0036C13.9122 31.1286 13.9101 31.2594 13.88 31.3831C13.7179 32.1646 13.3593 33.8517 13.2902 34.1959C13.1973 34.6487 12.9821 34.7448 12.5783 34.5277C9.92196 33.0857 8.26438 28.5548 8.26438 24.9141C8.26438 17.0898 13.1362 9.90434 22.306 9.90434C29.6774 9.90434 35.4072 16.0354 35.4072 24.2318C35.4072 32.7818 30.7878 39.6633 24.3806 39.6633C22.2263 39.6633 20.2021 38.3577 19.5088 36.8133L18.1859 42.7117C17.7051 44.8671 16.4088 47.5682 15.5429 49.2149C18.4648 50.2696 21.5473 50.5756 24.5798 50.112C27.6124 49.6483 30.5234 48.426 33.1142 46.5284C35.7049 44.6308 37.9143 42.1027 39.5914 39.1169C41.2685 36.131 42.3738 32.7577 42.8317 29.2274C43.2897 25.6971 43.0895 22.093 42.2449 18.6613C41.4003 15.2296 39.9312 12.0512 37.9379 9.34313C35.9445 6.6351 33.474 4.46126 30.6951 2.97014C27.9161 1.47902 24.8942 0.705737 21.8358 0.70313Z" fill="#F31E1E"/>
</svg>
