<svg width="50" height="51" viewBox="0 0 50 51" fill="none" xmlns="http://www.w3.org/2000/svg">
<path d="M28.5714 0.703125H35.6429C36.1571 2.92047 37.5714 5.71774 40.0536 8.49329C42.4821 11.213 45.7036 13.1079 50 13.1079V19.3102C43.7393 19.3102 39.0357 16.7859 35.7143 13.6382V34.8161C35.7143 37.8829 34.667 40.8808 32.7048 43.4307C30.7426 45.9807 27.9537 47.9681 24.6908 49.1417C21.4278 50.3153 17.8373 50.6224 14.3734 50.0241C10.9094 49.4258 7.72761 47.949 5.23024 45.7805C2.73288 43.6119 1.03215 40.849 0.343128 37.8412C-0.345894 34.8333 0.00773728 31.7156 1.3593 28.8823C2.71087 26.0489 4.99966 23.6272 7.93625 21.9234C10.8728 20.2196 14.3253 19.3102 17.8571 19.3102V25.5126C15.7381 25.5126 13.6666 26.0582 11.9046 27.0805C10.1427 28.1028 8.76938 29.5558 7.95844 31.2558C7.1475 32.9558 6.93532 34.8264 7.34874 36.6312C7.76215 38.4359 8.78259 40.0936 10.281 41.3947C11.7794 42.6959 13.6885 43.5819 15.7669 43.9409C17.8453 44.2999 19.9995 44.1156 21.9573 43.4115C23.9151 42.7073 25.5884 41.5149 26.7657 39.9849C27.9431 38.4549 28.5714 36.6562 28.5714 34.8161V0.703125Z" fill="url(#paint0_linear_705_104)"/>
<defs>
<linearGradient id="paint0_linear_705_104" x1="25" y1="0.703125" x2="25" y2="50.322" gradientUnits="userSpaceOnUse">
<stop/>
</linearGradient>
</defs>
</svg>
