<svg width="43" height="47" viewBox="0 0 43 47" fill="none" xmlns="http://www.w3.org/2000/svg">
<path d="M13.321 46.5991C29.1236 46.5991 37.7681 28.8684 37.7681 13.5192C37.7681 13.0231 37.7681 12.5198 37.7524 12.0237C39.4354 10.3739 40.888 8.33133 42.042 5.99174C40.4699 6.93038 38.8039 7.54901 37.0981 7.82755C38.8949 6.37321 40.2406 4.08495 40.8852 1.38807C39.1971 2.74232 37.3494 3.693 35.4231 4.19847C34.1281 2.33086 32.4144 1.09362 30.5475 0.678404C28.6806 0.263186 26.7647 0.693161 25.0966 1.90173C23.4284 3.11029 22.1011 5.03 21.3203 7.36349C20.5394 9.69699 20.3486 12.314 20.7773 14.8093C17.3612 14.5773 14.0193 13.3756 10.9682 11.2821C7.91719 9.18851 5.22519 6.2499 3.06684 2.65682C1.97112 5.21944 1.63674 8.2507 2.13157 11.1351C2.62641 14.0194 3.91338 16.5406 5.73113 18.1867C4.36899 18.124 3.03679 17.6287 1.84199 16.7407V16.9002C1.84434 19.5848 2.53112 22.1858 3.78623 24.2638C5.04135 26.3418 6.78782 27.7693 8.73043 28.3049C7.99307 28.5799 7.23138 28.7171 6.46656 28.7124C5.92738 28.7147 5.38928 28.647 4.85961 28.5104C5.40866 30.8213 6.47775 32.8418 7.91713 34.2889C9.35651 35.7359 11.0941 36.5371 12.8865 36.5802C9.84157 39.8187 6.08027 41.5751 2.2084 41.5666C1.52615 41.5705 0.844381 41.5172 0.166992 41.4071C4.09674 44.7997 8.66055 46.601 13.321 46.5991Z" fill="#7DBCF0" fill-opacity="0.88"/>
</svg>
