<svg width="60" height="41" viewBox="0 0 60 41" fill="none" xmlns="http://www.w3.org/2000/svg">
<path d="M30.1912 0.316406H30.525C33.6075 0.327039 49.2262 0.433366 53.4375 1.50372C54.7106 1.83038 55.8707 2.46711 56.8018 3.35028C57.733 4.23344 58.4026 5.33211 58.7437 6.53649C59.1225 7.88329 59.3887 9.66602 59.5687 11.5055L59.6062 11.8741L59.6887 12.7956L59.7187 13.1642C59.9625 16.4036 59.9925 19.4374 59.9962 20.1002V20.366C59.9925 21.0536 59.9587 24.293 59.6887 27.667L59.6587 28.0392L59.625 28.4078C59.4375 30.4351 59.16 32.4482 58.7437 33.9297C58.4036 35.1345 57.7344 36.2337 56.8031 37.117C55.8718 38.0003 54.7111 38.6368 53.4375 38.9624C49.0875 40.0682 32.5537 40.1462 30.2625 40.1497H29.73C28.5712 40.1497 23.7787 40.1285 18.7537 39.9654L18.1162 39.9442L17.79 39.93L17.1487 39.9052L16.5075 39.8804C12.345 39.7067 8.38125 39.4267 6.555 38.9589C5.28184 38.6335 4.12149 37.9976 3.19022 37.115C2.25894 36.2323 1.58943 35.1339 1.24875 33.9297C0.8325 32.4517 0.555 30.4351 0.3675 28.4078L0.3375 28.0356L0.3075 27.667C0.122428 25.2655 0.0198745 22.8589 0 20.451L0 20.0151C0.0075 19.2531 0.0375 16.6198 0.24 13.7135L0.26625 13.3485L0.2775 13.1642L0.3075 12.7956L0.39 11.8741L0.4275 11.5055C0.6075 9.66602 0.87375 7.87974 1.2525 6.53649C1.5926 5.33163 2.26186 4.23244 3.19317 3.34912C4.12449 2.4658 5.28514 1.8294 6.55875 1.50372C8.385 1.04297 12.3487 0.759432 16.5112 0.582221L17.1487 0.557412L17.7937 0.536148L18.1162 0.525515L18.7575 0.500706C22.3264 0.392163 25.8968 0.331905 29.4675 0.319951H30.1912V0.316406ZM24 11.6933V28.7693L39.5887 20.2348L24 11.6933Z" fill="#F31E1E"/>
</svg>
